<?xml version="1.0" encoding="UTF-8"?>
<svg id="Layer_1" xmlns="http://www.w3.org/2000/svg" version="1.1" xmlns:xlink="http://www.w3.org/1999/xlink" viewBox="0 0 1350 310">
  <defs>
    <style>
      .st0 {
        fill: url(#linear-gradient2);
      }

      .st1 {
        fill: url(#linear-gradient1);
      }

      .st2 {
        fill: #183eeb;
      }

      .st3 {
        fill: url(#linear-gradient7);
      }

      .st4 {
        fill: url(#linear-gradient4);
      }

      .st5 {
        fill: url(#linear-gradient5);
      }

      .st6 {
        fill: url(#linear-gradient3);
      }

      .st7 {
        fill: url(#linear-gradient6);
      }

      .st8 {
        fill: url(#linear-gradient);
      }
    </style>
    <linearGradient id="linear-gradient" x1="130.61" y1="298.66" x2="130.61" y2="59.37" gradientUnits="userSpaceOnUse">
      <stop offset="0" stop-color="#010028"/>
      <stop offset=".64" stop-color="#112db5"/>
      <stop offset=".87" stop-color="#183eeb"/>
    </linearGradient>
    <linearGradient id="linear-gradient1" x1="828.32" y1="253.56" x2="828.32" y2="89.66" xlink:href="#linear-gradient"/>
    <linearGradient id="linear-gradient2" x1="828.32" y1="253.56" x2="828.32" y2="89.66" xlink:href="#linear-gradient"/>
    <linearGradient id="linear-gradient3" x1="828.32" y1="253.56" x2="828.32" y2="89.66" xlink:href="#linear-gradient"/>
    <linearGradient id="linear-gradient4" x1="828.32" y1="253.56" x2="828.32" y2="89.66" xlink:href="#linear-gradient"/>
    <linearGradient id="linear-gradient5" x1="828.32" y1="253.56" x2="828.32" y2="89.66" xlink:href="#linear-gradient"/>
    <linearGradient id="linear-gradient6" x1="828.32" y1="253.56" x2="828.32" y2="89.66" xlink:href="#linear-gradient"/>
    <linearGradient id="linear-gradient7" x1="828.32" y1="253.56" x2="828.32" y2="89.66" xlink:href="#linear-gradient"/>
  </defs>
  <g>
    <path class="st2" d="M129.59,61.29h2.03c3.01-12.2,12.73-24.89,28.95-27.36v-.89c-16.21-2.48-25.94-15.17-28.95-27.36h-2.03c-3.01,12.19-12.73,24.88-28.94,27.36v.89c16.21,2.48,25.94,15.16,28.94,27.36Z"/>
    <path class="st8" d="M183.41,39.01c-28.17,18.98-43.12,52.05-52.74,81.18-.03-.03-.03-.07-.07-.1,0,.03,0,.07-.03.1-9.62-29.13-24.57-62.2-52.74-81.18l-35.45,21.23c62.4,12.3,80.69,52.12,86.05,74.77,1.59,6.65,2.05,11.84,2.18,14.42.17-2.58.63-7.77,2.22-14.42,5.36-22.65,23.64-62.5,86.05-74.77l-35.45-21.23ZM247.46,77.5c-25.63,3.97-47.19,14.32-64.58,28.67-3.37,2.81-6.58,5.72-9.62,8.8-23.15,23.21-37.4,54.13-42.66,85.42-5.22-31.28-19.48-62.2-42.63-85.42-3.04-3.08-6.25-5.99-9.62-8.8-17.39-14.35-38.95-24.7-64.58-28.67-5.49,4.2-8.76,10.75-8.76,17.76v21.1h.07c9.33.76,18.39,2.41,27.05,4.86,10.15,2.88,19.78,6.85,28.64,11.77,10.22,5.69,19.41,12.63,27.22,20.67,17.29,17.69,27.91,40.61,28.11,66.5l.4,79.4,2.64,1.59c7.08,4.23,15.91,4.23,22.98,0l2.64-1.59.4-79.4c.2-25.89,10.81-48.81,28.11-66.5,7.8-8.04,17-14.98,27.22-20.67,9.03-5.03,18.85-9.03,29.23-11.94,8.5-2.35,17.36-3.93,26.46-4.7h.07v-21.1c0-7.01-3.27-13.56-8.76-17.76ZM256.16,137.25c-7.18.66-14.35,1.95-21.26,3.87-1.98.56-3.9,1.16-5.82,1.82l-.1,106.22,16.34-9.76c6.32-3.8,10.35-10.35,10.85-17.63.03-.26.03-.53.03-.79l-.03-83.73ZM32.15,142.94c-1.75-.6-3.51-1.16-5.29-1.65-7.08-2.02-14.42-3.34-21.79-4.03l-.03,83.73c0,.26,0,.53.03.79.5,7.27,4.53,13.82,10.85,17.63l16.34,9.76-.1-106.22ZM187.34,168.44c-4.76,4.86-9.95,11.34-14.09,19.41v94.64l27.22-16.27v-108.9c-4.76,3.37-9.19,7.04-13.13,11.11ZM73.88,168.44c-3.93-4.07-8.37-7.74-13.13-11.11v108.9l27.22,16.27v-94.64c-4.17-8.07-9.33-14.55-14.09-19.41Z"/>
  </g>
  <g>
    <path class="st1" d="M399.68,199.43c5.14-17.2,12.32-38.25,16.69-49.8l28.23-70.84h36.96v154.01h-23.35v-76.23c0-17.45.77-40.81,1.02-58.26h-4.88c-5.9,18.74-13.35,42.1-21.3,62.63l-25.67,62.63h-23.87l-25.16-63.65c-8.22-21.56-15.14-43.38-20.53-61.6h-4.36c.25,14.63.25,32.6.25,48.77v85.73h-22.07V78.79h39.27l27.47,71.36c4.11,10.52,11.04,32.6,16.69,49.28h4.62Z"/>
    <path class="st0" d="M538.54,189.67l-15.66,43.12h-24.64l59.81-154.01h31.31l59.55,154.01h-25.15l-15.91-43.12h-69.3ZM570.11,99.58c-5.14,16.43-11.81,35.94-18.22,53.13l-6.93,19h56.47l-6.93-19c-6.42-17.19-13.09-36.96-17.97-53.13h-6.41Z"/>
    <path class="st6" d="M689.21,171.7v61.09h-23.61V78.79h62.12c37.99,0,54.92,16.43,54.92,45.18,0,24.38-13.09,40.29-36.7,45.69l45.69,60.31v2.83h-27.21l-42.61-61.09h-32.6ZM689.21,98.81v52.62h36.19c21.56,0,33.89-8.72,33.89-26.95,0-17.2-8.22-25.67-33.63-25.67h-36.45Z"/>
    <path class="st4" d="M950.5,254.61v2.82h-24.64l-14.89-25.92c-8.47,2.82-17.96,4.36-28.49,4.36-49.54,0-76.23-32.6-76.23-80.34s27.98-79.83,76.23-79.83,76.23,31.83,76.23,79.83c0,29.52-10.01,52.62-29.26,66.73l21.05,32.34ZM935.35,155.28c0-34.9-16.94-58.78-52.87-58.78s-52.87,23.87-52.87,58.78,16.69,60.06,52.87,60.06,52.87-24.13,52.87-60.06Z"/>
    <path class="st5" d="M1007.99,78.79v132.7h71.87v21.3h-95.48V78.79h23.61Z"/>
    <path class="st7" d="M1126.31,232.8h-23.61V78.79h107.03v20.79h-83.42v44.66h74.95v20.54h-74.95v47.23h83.16v20.79h-83.16Z"/>
    <path class="st3" d="M1221.8,100.35v-21.56h123.2v21.56h-49.79v132.45h-23.61V100.35h-49.79Z"/>
  </g>
</svg>
